<svg width="64" height="64" viewBox="0 0 64 64" fill="none" xmlns="http://www.w3.org/2000/svg">
<path d="M13.1529 46.495C12.1064 47.1312 10.7909 47.9314 9.72092 48.583C8.63297 49.2445 7.15733 48.9902 6.4156 48.0161C-2.16816 36.7333 -4.33062 16.4845 13.8823 5.40744C27.6279 -2.95426 37.7613 -0.865214 43.3926 6.53672C48.2206 12.8831 46.3573 19.6907 40.5198 23.2403C34.6173 26.8307 25.6246 22.078 21.4408 19.0413C19.3938 17.5565 16.4884 17.1856 14.3405 18.9114C7.69291 24.2518 11.3837 34.7873 16.4604 43.4814C17.024 44.4467 14.1557 45.8831 13.1517 46.4939L13.1529 46.495Z" fill="#0043B3"/>
<path d="M38.5314 7.06733L41.1197 3.89963C42.1326 2.66029 44.0698 2.39393 45.448 3.30418C61.4188 13.8573 72.9158 36.7686 54.6984 53.1508C40.788 65.6598 25.5723 65.4639 14.9594 61.8856C4.52135 58.3646 4.56393 47.3283 9.50959 41.2758C13.5544 36.3261 23.932 36.981 31.6732 39.4652C40.5236 42.306 45.244 34.3141 45.244 25.8633C45.244 21.825 43.5051 14.8545 38.8844 10.7237C37.783 9.73863 37.6115 8.1944 38.5303 7.06953L38.5314 7.06733Z" fill="#1C1C1C"/>
</svg>
